<svg width="640" height="512" xmlns="http://www.w3.org/2000/svg">
 <!--! Font Awesome Pro 6.2.1 by @fontawesome - https://fontawesome.com License - https://fontawesome.com/license (Commercial License) Copyright 2022 Fonticons, Inc. -->

 <g>
  <title>Layer 1</title>
  <ellipse ry="134" rx="134" id="svg_7" cy="298" cx="321.5" stroke="#000" fill="#302540"/>
  <path fill="#00c9a7" id="svg_1" d="m143,479c-79.5,0 -144,-64.5 -144,-144c0,-62.8 40.2,-116.2 96.2,-135.9c-0.1,-2.7 -0.2,-5.4 -0.2,-8.1c0,-88.4 71.6,-160 160,-160c59.3,0 111,32.2 138.7,80.2c15.2,-10.2 33.6,-16.2 53.3,-16.2c53,0 96,43 96,96c0,12.2 -2.3,23.8 -6.4,34.6c58.4,11.8 102.4,63.5 102.4,125.4c0,70.7 -57.3,128 -128,128l-368,0zm79,-217c-9.4,9.4 -9.4,24.6 0,33.9s24.6,9.4 33.9,0l39,-39l0,134.1c0,13.3 10.7,24 24,24s24,-10.7 24,-24l0,-134.1l39,39c9.4,9.4 24.6,9.4 33.9,0s9.4,-24.6 0,-33.9l-80,-80c-9.4,-9.4 -24.6,-9.4 -33.9,0l-80,80l0.1,0z"/>
 </g>
</svg>